<?xml version="1.0" standalone="no"?><!DOCTYPE svg PUBLIC "-//W3C//DTD SVG 1.1//EN" "http://www.w3.org/Graphics/SVG/1.1/DTD/svg11.dtd"><svg t="1598238293654" class="icon" viewBox="0 0 1024 1024" version="1.1" xmlns="http://www.w3.org/2000/svg" p-id="4545" xmlns:xlink="http://www.w3.org/1999/xlink" width="128" height="128"><defs><style type="text/css"></style></defs><path d="M281.689661 460.831601a28.772767 28.772767 0 0 1-28.72157-28.772767 29.131147 29.131147 0 0 1 10.648996-22.168342l147.908406-148.317983a31.179031 31.179031 0 0 1 22.321933-9.061885 27.851219 27.851219 0 0 1 19.608488 7.423578 30.052695 30.052695 0 0 1-1.689505 42.186406L350.600951 403.388461h384.746165a29.489526 29.489526 0 0 1 29.182344 28.823965 28.823964 28.823964 0 0 1-28.772767 28.670373z m301.192508 302.370041a27.13446 27.13446 0 0 1-19.608488-7.679564 29.591921 29.591921 0 0 1-7.884352-21.1444 31.742199 31.742199 0 0 1 9.471462-21.246795l101.626233-101.114261H281.280085a28.772767 28.772767 0 0 1 0-57.545535h454.118228a28.875161 28.875161 0 0 1 28.772768 28.772768 27.851219 27.851219 0 0 1-8.908295 20.78602 9.010689 9.010689 0 0 0-1.484716 1.894292l-148.420377 147.908407a31.89579 31.89579 0 0 1-22.629116 9.471462z" fill="#cdcdcd" p-id="4546"></path><path d="M144.071871 804.773683s186.203833-79.150708 367.851125 5.682877c207.143445 96.711312 397.289454-67.887347 397.289453-67.887347s-128.607102 283.52951-400.463673 241.087118-364.676905-178.882648-364.676905-178.882648z" fill="#cdcdcd" p-id="4547"></path><path d="M511.922996 1023.999642a509.411091 509.411091 0 0 1-381.981523-171.715056 31.281425 31.281425 0 0 1 46.794144-41.520843 448.128169 448.128169 0 1 0-112.94079-297.506317 31.281425 31.281425 0 0 1-62.511653 0 510.696138 510.696138 0 0 1 1021.382037-5.119709v5.119709A510.281442 510.281442 0 0 1 512.793346 1023.999642z" fill="#cdcdcd" p-id="4548"></path><path d="M86.167957 750.863142a31.383819 31.383819 0 0 1-28.977555-19.454896 512.585311 512.585311 0 0 1-22.014751-66.556223 31.281425 31.281425 0 0 1 60.61736-15.359128 452.889499 452.889499 0 0 0 19.250108 58.569476 31.332622 31.332622 0 0 1-17.202224 40.957676 32.458958 32.458958 0 0 1-11.672938 1.843095z" fill="#cdcdcd" p-id="4549"></path></svg>