<?xml version="1.0" standalone="no"?><!DOCTYPE svg PUBLIC "-//W3C//DTD SVG 1.1//EN" "http://www.w3.org/Graphics/SVG/1.1/DTD/svg11.dtd"><svg t="1598238228314" class="icon" viewBox="0 0 1024 1024" version="1.1" xmlns="http://www.w3.org/2000/svg" p-id="3049" xmlns:xlink="http://www.w3.org/1999/xlink" width="128" height="128"><defs><style type="text/css"></style></defs><path d="M319.482305 724.643074h-96.032356a31.967644 31.967644 0 0 0 0 63.935288h96.032356a31.967644 31.967644 0 0 0 0-63.935288m461.524773-183.263903l-161.261881 172.133468-64.970677-64.970677a31.967644 31.967644 0 0 0-45.298281 45.298281l87.749241 87.490394a32.226491 32.226491 0 0 0 22.649141 9.447927 30.673407 30.673407 0 0 0 12.942366-3.106168 31.191102 31.191102 0 0 0 12.683519-7.894843l182.228513-194.653185a31.967644 31.967644 0 1 0-46.721941-43.745197m209.666329-298.968655L903.183013 74.030334C881.569262 32.614762 827.987867 0 781.265925 0H243.381193c-46.721941 0-100.43276 32.355915-122.305359 73.642063L33.714863 238.527806C14.819009 274.119312 0.064712 333.654196 0.064712 373.904954V927.967644a96.032356 96.032356 0 0 0 95.902932 96.032356h831.935288a96.16178 96.16178 0 0 0 96.032356-96.032356V377.917088c0-40.250758-14.624874-99.785642-33.261881-135.506572M90.273003 268.424671L177.633974 103.538928c11.001011-20.578362 42.321537-39.474216 65.747219-39.474216h537.884732c23.296259 0 54.357937 18.895854 65.229525 39.60364l87.490394 168.250758a194.13549 194.13549 0 0 1 11.518706 29.249747H77.460061c3.88271-12.424671 8.153691-23.943377 12.812942-32.744186M959.870576 927.967644a31.967644 31.967644 0 0 1-31.967644 31.967644H95.967644A31.967644 31.967644 0 0 1 64.129424 927.967644V373.904954c0-2.588473 0.388271-5.824065 0.647118-8.671385h894.058645c0.388271 4.141557 1.035389 8.930233 1.035389 12.683519zM416.550051 588.101112H224.485339a31.967644 31.967644 0 0 0 0 63.935288h192.064712a31.967644 31.967644 0 1 0 0-63.935288" p-id="3050" fill="#b3b3b3"></path></svg>