<?xml version="1.0" standalone="no"?><!DOCTYPE svg PUBLIC "-//W3C//DTD SVG 1.1//EN" "http://www.w3.org/Graphics/SVG/1.1/DTD/svg11.dtd"><svg t="1598238193960" class="icon" viewBox="0 0 1137 1024" version="1.1" xmlns="http://www.w3.org/2000/svg" p-id="2225" xmlns:xlink="http://www.w3.org/1999/xlink" width="142.125" height="128"><defs><style type="text/css"></style></defs><path d="M816.355556 719.644444c-73.955556 0-136.533333 48.355556-150.755556 116.622223l-2.844444 11.377777h-182.044445l-2.844444-11.377777c-17.066667-68.266667-79.644444-116.622222-150.755556-116.622223-85.333333 0-156.444444 68.266667-156.444444 150.755556-2.844444 85.333333 68.266667 153.6 153.6 153.6 71.111111 0 130.844444-45.511111 150.755555-113.777778l2.844445-11.377778h184.888889l2.844444 11.377778c17.066667 65.422222 79.644444 110.933333 150.755556 110.933334 85.333333 0 156.444444-68.266667 156.444444-150.755556s-68.266667-150.755556-156.444444-150.755556z m-492.088889 250.311112c-56.888889 0-102.4-45.511111-102.4-96.711112 0-54.044444 45.511111-96.711111 102.4-96.711111s102.4 45.511111 102.4 96.711111c-2.844444 54.044444-48.355556 96.711111-102.4 96.711112z m492.088889 0c-56.888889 0-102.4-45.511111-102.4-96.711112 0-54.044444 45.511111-96.711111 102.4-96.711111s102.4 45.511111 102.4 96.711111c0 54.044444-45.511111 96.711111-102.4 96.711112zM193.422222 577.422222h167.822222c14.222222 0 28.444444-11.377778 28.444445-28.444444v-162.133334c0-14.222222-11.377778-28.444444-28.444445-28.444444-14.222222 0-28.444444 11.377778-28.444444 28.444444v133.688889H193.422222c-14.222222 0-28.444444 11.377778-28.444444 28.444445s14.222222 28.444444 28.444444 28.444444z" fill="#B6B6B8" p-id="2226"></path><path d="M1026.844444 0H423.822222c-48.355556 0-91.022222 39.822222-91.022222 88.177778v125.155555L71.111111 341.333333s-2.844444 0-2.844444 2.844445C22.755556 369.777778 0 418.133333 0 472.177778v406.755555c0 14.222222 11.377778 25.6 28.444444 25.6s28.444444-11.377778 28.444445-25.6V472.177778c0-36.977778 14.222222-65.422222 39.822222-82.488889h2.844445L372.622222 256l2.844445-2.844444c2.844444 0 2.844444-2.844444 2.844444-2.844445s0-2.844444 2.844445-2.844444l2.844444-2.844445 2.844444-2.844444V233.244444 85.333333c0-17.066667 14.222222-34.133333 34.133334-34.133333h605.866666c31.288889 0 54.044444 25.6 54.044445 54.044444v768c0 14.222222 11.377778 28.444444 28.444444 28.444445 14.222222 0 28.444444-11.377778 28.444445-28.444445V108.088889C1137.777778 48.355556 1089.422222 0 1026.844444 0z" fill="#B6B6B8" p-id="2227"></path></svg>