<?xml version="1.0" standalone="no"?><!DOCTYPE svg PUBLIC "-//W3C//DTD SVG 1.1//EN" "http://www.w3.org/Graphics/SVG/1.1/DTD/svg11.dtd"><svg t="1598238108265" class="icon" viewBox="0 0 1024 1024" version="1.1" xmlns="http://www.w3.org/2000/svg" p-id="1403" xmlns:xlink="http://www.w3.org/1999/xlink" width="128" height="128"><defs><style type="text/css"></style></defs><path d="M870.4 730.156522c-20.034783 0-31.165217 13.356522-31.165217 31.165217v113.530435c0 20.034783-20.034783 37.843478-37.843479 37.843478H184.765217c-20.034783 0-37.843478-20.034783-37.843478-37.843478V169.182609c0-20.034783 20.034783-37.843478 37.843478-37.843479H801.391304c20.034783 0 37.843478 20.034783 37.843479 37.843479V289.391304c0 20.034783 13.356522 31.165217 31.165217 31.165218 20.034783 0 31.165217-13.356522 31.165217-31.165218V155.826087c0-51.2-44.521739-95.721739-95.721739-95.721739H178.086957C133.565217 66.782609 89.043478 106.852174 89.043478 155.826087v712.347826c0 57.878261 44.521739 95.721739 89.043479 95.721739h629.982608c51.2 0 95.721739-44.521739 95.721739-89.043478v-113.530435c0-20.034783-13.356522-31.165217-33.391304-31.165217zM921.6 489.73913v57.878261c0 20.034783-20.034783 37.843478-37.843478 37.843479H476.382609c-20.034783 0-31.165217-20.034783-31.165218-37.843479V489.73913c0-20.034783 13.356522-37.843478 31.165218-37.843478h400.695652c26.713043 0 44.521739 20.034783 44.521739 37.843478zM890.434783 396.243478H476.382609c-51.2 0-89.043478 31.165217-95.721739 82.365218v75.686956c0 51.2 44.521739 89.043478 95.721739 89.043478H890.434783c51.2 0 89.043478-44.521739 89.043478-89.043478V489.73913c0-55.652174-44.521739-93.495652-89.043478-93.495652z m0-66.782608" p-id="1404" fill="#b3b3b3"></path><path d="M834.782609 523.130435m-33.391305 0a33.391304 33.391304 0 1 0 66.782609 0 33.391304 33.391304 0 1 0-66.782609 0Z" p-id="1405" fill="#b3b3b3"></path></svg>