<?xml version="1.0" standalone="no"?><!DOCTYPE svg PUBLIC "-//W3C//DTD SVG 1.1//EN" "http://www.w3.org/Graphics/SVG/1.1/DTD/svg11.dtd"><svg t="1601169470100" class="icon" viewBox="0 0 1104 1024" version="1.1" xmlns="http://www.w3.org/2000/svg" p-id="1590" data-spm-anchor-id="a313x.7781069.0.i3" xmlns:xlink="http://www.w3.org/1999/xlink" width="215.625" height="200"><defs><style type="text/css"></style></defs><path d="M278.758138 14.877639C291.717957 4.300568 308.93185 0.116232 325.425108 1.127446c21.607446 1.255301 42.203678 9.1358 61.370261 18.794643 31.812577 16.342157 60.3358 38.333167 87.208536 61.765448 30.650261 27.023837 58.848036 56.720999 85.60454 87.568853 28.778933-33.428195 59.48731-65.310511 92.996867-94.042951 28.069921-23.687991 57.964677-45.888218 91.648581-60.96345 20.270783-8.856844 42.540749-15.389058 64.857208-12.541385 17.179024 2.115414 33.184109 11.692894 43.261385 25.745289 13.529353 18.597049 18.631918 41.761998 20.875187 64.264427 2.940658 33.439818-0.476549 67.088854-6.102157 100.075369-13.564222 75.771351-39.251396 148.822883-69.483223 219.42193 48.933485 8.322179 97.483405 19.59664 144.475823 35.683087 32.986515 11.506924 65.473235 25.280363 94.728717 44.574801 16.911691 11.332577 32.998138 24.664336 44.342338 41.761998 8.461657 12.692486 13.622338 28.023428 12.250806 43.400863-1.115823 14.714915-7.903746 28.395369-16.772213 39.972032a274.583101 274.583101 0 0 0-33.172486-33.509558c3.742656-6.055664 5.044449-13.866425 1.243678-20.22429-8.06647-14.749784-22.142111-24.954915-35.834189-34.125585-33.300341-21.10765-70.61067-34.88109-108.153462-46.329898-40.29748-11.983473-81.47832-21.014665-123.019478-27.360908-4.277321 9.228785-8.740613 18.376209-13.285266 27.47714 7.787514 16.35378 15.784245 32.602951 23.188195 49.131078a274.584263 274.584263 0 0 0-42.924313 17.818298c-2.347877-5.160681-4.800363-10.263246-7.078502-15.447174-4.195959 8.171078-8.833598 16.09807-13.250397 24.152917-1.266924 2.115414-2.254892 4.60277-4.463292 5.951056-32.428604 21.54933-60.126583 50.165539-80.548468 83.314778-19.561771 31.556867-32.254257 67.239955-37.519546 103.969126-1.882951 0.046493-3.765902 0.104608-5.63723 0.162724-2.301385 2.661703-4.451669 5.439637-6.567083 8.252441 3.359092 3.975119 6.857662 7.84563 10.205131 11.843995-1.476141 24.931669 0.267333 50.0958 5.602361 74.504427-15.772622-16.225925-31.150057-32.847037-45.888218-50.014438-28.964904 33.463065-59.696527 65.519728-93.357185 94.310284-27.790965 23.467151-57.418388 45.388422-90.718729 60.417162-19.956958 8.787106-41.796867 15.354188-63.822747 13.006311-15.958593-1.615619-31.219796-9.403133-41.564404-21.712054-12.890079-15.156595-19.131714-34.741612-22.386198-54.082543-4.591146-28.499977-3.27773-57.581112 0.069739-86.139205 3.010397-25.733666 8.333802-51.130261 14.238366-76.329263-49.549512-9.926175-98.587605-23.339296-145.289444-42.796458-30.859478-13.250397-61.347015-29.057889-85.964858-52.269331-14.459205-13.796686-26.837866-31.359274-29.267106-51.664926-2.2084-17.248763 3.90538-34.590511 13.936164-48.468558 13.610715-18.992236 32.67269-33.265471 52.443677-45.30706 32.765675-19.619886 68.634733-33.463065 104.968718-44.877004 48.061748-14.8079 97.39042-25.280363 147.091033-32.719183-16.470011-38.147196-31.091941-77.108014-43.493848-116.754597-15.191464-49.421657-27.407401-100.110238-30.94084-151.821657-1.534257-25.071146-1.06933-50.583973 4.997957-75.073961 4.649262-18.434325 13.07605-36.891896 28.232644-49.014847m30.580523 35.229784c-6.55546 4.405176-9.670465 12.169444-12.088082 19.375801-6.322997 20.724086-6.543837 42.715096-5.474506 64.171441 2.917412 46.306652 13.645585 91.741566 26.826243 136.107151 13.471237 44.760772 30.31319 88.44059 49.038093 131.248672 10.763042-1.022838 21.54933-2.127037 32.289126-3.335846 10.542202-17.353371 20.607855-35.06706 31.440635-52.26933 30.09235-48.317457 62.648808-95.112281 98.029694-139.721952-18.876005-22.618661-38.995687-44.191237-60.010352-64.845585-24.280772-23.618252-50.060931-45.876595-78.374938-64.555005-17.527719-11.262838-36.008536-21.712054-56.325811-26.930852-8.240817-1.708604-17.574211-3.545062-25.350102 0.755505m474.550193-0.616027c-19.794234 5.195551-37.868241 15.307696-54.989149 26.268332-18.504064 12.053212-35.857435 25.780159-52.432055 40.343972-31.277911 27.465516-59.92899 57.813575-86.778479 89.57966 48.282588 60.789103 91.27664 125.68118 129.842271 193.025743 0.557911 1.394779 1.859705 2.034052 3.335845 1.975937 9.066061 0.964722 18.097253 2.138661 27.128445 3.335845a1154.992963 1154.992963 0 0 0 43.703065-112.500522c15.272826-47.166765 27.860704-95.542338 32.67269-144.998865 2.092168-24.722452 2.847673-50.13067-3.638048-74.29521-2.487355-8.078093-5.555868-16.923314-12.750601-21.99101-7.961862-4.544654-17.620704-2.557094-26.093984-0.743882M559.434098 242.73798c-37.4963 48.084994-71.645131 98.71546-103.120636 150.926674 69.06479-3.870511 138.362043-3.266107 207.357094 1.557503-31.731215-52.792372-65.973031-104.201589-104.236458-152.484177m-108.490534 197.791237c-7.462066 0.66252-15.203087 0.40681-22.467559 1.882951-7.589921 13.192281-14.494075 26.768127-21.653939 40.192872 40.29748 78.049489 86.74361 153.007219 139.652213 223.141339 8.775482 0.058116 17.562588-0.034869 26.338071-0.18597 52.792372-70.006266 99.145516-144.801271 139.350011-222.688037-6.322997-13.145789-13.459614-25.966129-20.526493-38.7516-79.990556-7.241226-160.527401-8.403541-240.692304-3.591555m-266.007537 44.667786c-29.639047 9.368263-58.859659 20.572985-86.081089 35.706334-14.203496 8.0316-27.988558 17.20227-39.367628 28.999773-4.928218 5.346652-9.740204 11.297707-11.518547 18.504064-1.418025 6.07891 1.522633 12.053212 4.881725 16.934937 6.927401 9.914552 16.400272 17.725312 26.1521 24.745698 15.69126 11.041998 32.847037 19.829103 50.374756 27.558502 46.457753 20.142928 95.65857 33.253848 145.196458 43.238138 20.735709-68.332531 48.654529-134.293939 80.130035-198.325902-5.23042-10.251623-10.077276-20.689217-15.098479-31.045448-52.280953 7.415573-104.236459 17.888036-154.669331 33.683904m135.700341 203.916641c55.407582 8.612758 111.34983 13.529353 167.361816 15.668013-39.100295-54.466107-74.457934-111.582293-106.444858-170.500068-23.815846 50.13067-44.470193 101.818842-60.916958 154.832055m-12.66924 45.004858c-6.090533 24.292395-11.041998 48.898615-14.052395 73.772168-2.533848 21.746924-3.777526 43.79605-1.29017 65.612713 1.348286 10.658434 3.405585 21.421476 8.089716 31.173303 2.684949 5.45126 6.74143 11.065244 13.017934 12.483269 7.357457 1.696981 15.005494 0.302202 22.235097-1.406402 19.689625-5.358275 37.68227-15.435551 54.745062-26.40781 19.41067-12.738978 37.589285-27.2563 54.965903-42.645357 30.069103-26.791373 57.72059-56.197957 83.756458-86.894711-2.789557-2.626833-4.16109-8.229194-8.740613-7.741021-71.203451-1.1042-142.383655-6.7763-212.726992-17.946152z" p-id="1591" data-spm-anchor-id="a313x.7781069.0.i4" class="" fill="#4888F6"></path><path d="M776.368672 574.114143c41.448173-18.05076 88.184881-23.490397 132.71319-15.853984 40.622928 6.834415 79.235051 24.838683 110.768671 51.316231 40.239364 33.602543 68.762588 81.001771 79.107197 132.445857-17.283632-8.124586-35.090306-15.633144-53.884949-19.364177-11.007128-28.837049-29.17412-54.91941-52.536663-75.10883-31.940431-28.023428-73.690806-44.64454-116.185062-45.992827-40.181249-1.662111-80.757684 10.216754-113.720954 33.253848-33.381703 23.071964-59.080499 57.185925-71.633507 95.798048-13.331759 40.053394-12.425153 84.616572 2.39437 124.123677 8.891714 23.827469 22.711646 45.806856 40.320726 64.159819-4.021612 18.876005-5.660477 38.228558-5.242043 57.511373-29.453076-22.21185-53.617616-51.397594-69.750556-84.581702-19.526901-39.797684-27.151691-85.232599-22.107242-129.24949 4.219205-37.868241 17.981022-74.620658 39.623337-105.991555 24.815437-36.113144 59.89412-65.089671 100.133485-82.466288z" p-id="1592" data-spm-anchor-id="a313x.7781069.0.i11" class="selected" fill="#4888F6"></path><path d="M944.497616 722.367491c5.207174-5.242043 12.983065-7.787514 20.270784-6.48572 8.333802 1.29017 15.644767 7.543428 18.225107 15.575028 2.80118 8.182701 0.523042 17.806674-5.695346 23.839092-38.34479 38.379659-76.712826 76.724449-115.080862 115.06924-8.612758 9.019569-24.60622 8.891714-32.974893-0.383565-27.291169-27.686356-54.989149-54.977526-82.384926-82.570896-5.927809-6.11378-8.008354-15.609898-5.114188-23.618252 2.684949-7.961862 10.007537-14.122134 18.329716-15.330942 7.299342-1.232054 15.040363 1.359909 20.201044 6.660068 21.921271 21.886402 43.784427 43.819296 65.717321 65.694075 32.881907-32.765675 65.659205-65.647582 98.506243-98.448128z" p-id="1593" data-spm-anchor-id="a313x.7781069.0.i13" class="selected" fill="#4888F6"></path><path d="M1045.072781 722.65807c18.794642 3.731033 36.601317 11.239591 53.884949 19.364177 9.972667 48.503428 4.207582 100.168354-16.632736 145.12672-18.71328 40.704291-49.375165 75.852713-87.243405 99.796413-40.146379 25.849898-88.452213 38.554007-136.107151 36.345608-46.934302-1.906198-93.066606-18.550556-130.50479-46.88781-0.418434-19.282815 1.220431-38.635369 5.242043-57.511373 31.905562 33.672281 76.68958 54.826425 123.019478 57.685721 47.004041 3.428831 94.972804-11.925358 131.330034-41.87823 29.83664-24.315641 52.013621-57.94143 62.288491-95.054165 10.728173-38.240182 8.845221-79.874325-5.276913-116.987061z" p-id="1594" data-spm-anchor-id="a313x.7781069.0.i14" class="selected" fill="#4888F6"></path></svg>